# xmcd
#
# Track frame offsets: 
#        150
#        15816
#        32767
#        52462
#        68141
#        84910
#        101862
#        118774
#        134711
#        152863
#        169368
#        195762
#        211854
#        231484
#        242594
#        259852
#        275833
#        292933
#        309257
#        324797
#        340976
#
# Disc length: 4791 seconds
#
# Revision: 0
# Processed by: cddbd v1.5.2PL0 Copyright (c) Steve Scherf et al.
# Submitted via: ExactAudioCopy v0.99pb4
#
DISCID=3012b515
DTITLE=Various Artist - prevue promo 1114A-3
DYEAR=2003
DGENRE=pop
TTITLE0=Liz Phair - Why Can't I?
TTITLE1=Daryl Hall and John Oates - Man On A Mission
TTITLE2=Luther Vandross - Dance With My Father
TTITLE3=American Idol Finalists (2003) - What The World Needs Now Is L
TTITLE3=ove
TTITLE4=Liberacion - Muchacha De 15 Anos (Trans: "Girl Of 15 - __"????C
TTITLE4=umbia)
TTITLE5=Liberacion - Muchacha De 15 Anos (Trans: "Girl Of 15 - __"????B
TTITLE5=anda)
TTITLE6=Roc Project feat.  Tina Arena - Never (Past Tense)
TTITLE7=Thalia feat. Fat Joe - I Want You(Pop Edit)
TTITLE8=Stagga Lee - Roll Wit M.V.P. (We Be Like!) (The "La La" Song)(
TTITLE8=Lyric - Different Edit)
TTITLE9=Ashanti - Rock Wit U (Awww Baby)
TTITLE10=Bob Holroyd - Games Without Frontiers
TTITLE11=Gemma Hayes - Hanging Around
TTITLE12=Bart Ferguson - Tomorrow
TTITLE13=Sean Watkins - On Ice
TTITLE14=Rob Zombie feat.  Lionel Richie and Trina - Brick House 2003(Am
TTITLE14=ended Album Version)
TTITLE15=Good Charlotte - Young and The Hopeless, The
TTITLE16=Type O Negative - I Don't Wanna Be Me
TTITLE17=Staind - Price To Play(New Mix)
TTITLE18=Authority Zero - Over Seasons
TTITLE19=Phunk Junkeez - Everyday
TTITLE20=Goldfrapp - Train
EXTD=
EXTT0=
EXTT1=
EXTT2=
EXTT3=
EXTT4=
EXTT5=
EXTT6=
EXTT7=
EXTT8=
EXTT9=
EXTT10=
EXTT11=
EXTT12=
EXTT13=
EXTT14=
EXTT15=
EXTT16=
EXTT17=
EXTT18=
EXTT19=
EXTT20=
PLAYORDER=
